<svg width="175" height="140" viewBox="0 0 175 140" fill="none" xmlns="http://www.w3.org/2000/svg">
<path d="M87.4971 21.0958L98.0459 10.5469L173.471 85.9715C175.51 88.0109 175.51 91.3168 173.471 93.3562L170.306 96.5204C168.267 98.5597 164.961 98.5597 162.922 96.5204L87.4971 21.0958Z" fill="#180C19"/>
<path d="M87.5007 0L98.0503 10.5489L12.0782 96.5204C10.0392 98.5597 6.73312 98.5597 4.694 96.5204L1.52935 93.3562C-0.509782 91.3168 -0.509782 88.0109 1.52935 85.9715L87.5007 0Z" fill="#180C19"/>
<path d="M62.8816 45.7112L73.4304 35.1623L148.855 110.587C150.894 112.626 150.894 115.932 148.855 117.972L145.691 121.136C143.652 123.175 140.346 123.175 138.306 121.136L62.8816 45.7112Z" fill="#A470C3"/>
<path d="M64.5136 71.5767L75.0624 82.1255L35.6151 121.573C33.576 123.611 30.27 123.611 28.2309 121.573L25.0662 118.408C23.0271 116.369 23.0271 113.063 25.0662 111.024L64.5136 71.5767Z" fill="#A470C3"/>
<path d="M129.343 14.0527H114.425V42.6215H129.343V14.0527Z" fill="#180C19"/>
<path fill-rule="evenodd" clip-rule="evenodd" d="M73.8943 103.739L85.3046 92.329L96.68 103.704L85.2696 115.115L73.8943 103.739ZM72.8395 104.794L61.4642 116.169L72.8395 127.545L84.2149 116.169L72.8395 104.794ZM85.2696 117.224L73.8943 128.599L85.3046 140.01L96.68 128.635L85.2696 117.224ZM97.7347 127.58L109.145 116.169L97.7347 104.759L86.3243 116.169L97.7347 127.58Z" fill="#A470C3"/>
</svg>
